<svg xmlns="http://www.w3.org/2000/svg" width="24" height="24" viewBox="0 0 24 24">
  <!-- Simple chat bubble -->
  <path d="M4 3h12c2.21 0 4 1.79 4 4v4c0 2.21-1.79 4-4 4H9l-4 3v-3H4c-2.21 0-4-1.79-4-4V7c0-2.21 1.79-4 4-4z" 
        fill="currentColor" 
        opacity="0.1"/>
  
  <!-- Chat bubble outline -->
  <path d="M4 3h12c2.21 0 4 1.79 4 4v4c0 2.21-1.79 4-4 4H9l-4 3v-3H4c-2.21 0-4-1.79-4-4V7c0-2.21 1.79-4 4-4z" 
        fill="none" 
        stroke="currentColor" 
        stroke-width="1.5"/>
  
  <!-- Simple AI sparkle -->
  <path d="M15 6l.5 1 1 .5-1 .5-.5 1-.5-1-1-.5 1-.5.5-1z" fill="currentColor"/>
</svg>
