<svg xmlns="http://www.w3.org/2000/svg" width="24" height="24" viewBox="0 0 24 24" fill="none">
  <defs>
    <linearGradient id="miraGradient" x1="0%" y1="0%" x2="100%" y2="100%">
      <stop offset="0%" style="stop-color:#6366f1;stop-opacity:1" />
      <stop offset="100%" style="stop-color:#8b5cf6;stop-opacity:1" />
    </linearGradient>
  </defs>
  
  <!-- Main chat bubble background -->
  <path d="M3 4h12c2.21 0 4 1.79 4 4v4c0 2.21-1.79 4-4 4H8l-4 3v-3H3c-2.21 0-4-1.79-4-4V8c0-2.21 1.79-4 4-4z" 
        fill="url(#miraGradient)" 
        opacity="0.1"/>
  
  <!-- Chat bubble outline -->
  <path d="M3 4h12c2.21 0 4 1.79 4 4v4c0 2.21-1.79 4-4 4H8l-4 3v-3H3c-2.21 0-4-1.79-4-4V8c0-2.21 1.79-4 4-4z" 
        fill="none" 
        stroke="url(#miraGradient)" 
        stroke-width="1.5"/>
  
  <!-- AI/Coding symbols inside the chat bubble -->
  <!-- Code brackets -->
  <path d="M6 8l-1 1 1 1M10 8l1 1-1 1" 
        stroke="url(#miraGradient)" 
        stroke-width="1.5" 
        stroke-linecap="round" 
        fill="none"/>
  
  <!-- AI sparkle/star -->
  <path d="M14 6l.5 1.2 1.2.5-1.2.5-.5 1.2-.5-1.2-1.2-.5 1.2-.5.5-1.2z" 
        fill="url(#miraGradient)"/>
  
  <!-- Small dots for conversation -->
  <circle cx="7" cy="12" r="0.8" fill="url(#miraGradient)" opacity="0.6"/>
  <circle cx="9" cy="12" r="0.8" fill="url(#miraGradient)" opacity="0.6"/>
  <circle cx="11" cy="12" r="0.8" fill="url(#miraGradient)" opacity="0.6"/>
</svg>
